<svg width="9" height="13" viewBox="0 0 9 13" fill="none" xmlns="http://www.w3.org/2000/svg">
<path d="M7.75033 4.60417H7.20866V3.52083C7.20866 2.02583 5.99533 0.8125 4.50033 0.8125C3.00533 0.8125 1.79199 2.02583 1.79199 3.52083V4.60417H1.25033C0.654492 4.60417 0.166992 5.09167 0.166992 5.6875V11.1042C0.166992 11.7 0.654492 12.1875 1.25033 12.1875H7.75033C8.34616 12.1875 8.83366 11.7 8.83366 11.1042V5.6875C8.83366 5.09167 8.34616 4.60417 7.75033 4.60417ZM2.87533 3.52083C2.87533 2.62167 3.60116 1.89583 4.50033 1.89583C5.39949 1.89583 6.12533 2.62167 6.12533 3.52083V4.60417H2.87533V3.52083ZM7.75033 11.1042H1.25033V5.6875H7.75033V11.1042ZM4.50033 9.47917C5.09616 9.47917 5.58366 8.99167 5.58366 8.39583C5.58366 7.8 5.09616 7.3125 4.50033 7.3125C3.90449 7.3125 3.41699 7.8 3.41699 8.39583C3.41699 8.99167 3.90449 9.47917 4.50033 9.47917Z" fill="#333333"/>
</svg>
